<?xml version="1.0" encoding="utf-8"?>
<!-- Generator: Adobe Illustrator 21.0.0, SVG Export Plug-In . SVG Version: 6.00 Build 0)  -->
<svg version="1.1" id="Layer_1" xmlns="http://www.w3.org/2000/svg" xmlns:xlink="http://www.w3.org/1999/xlink" x="0px" y="0px"
	 viewBox="0 0 512 512" style="enable-background:new 0 0 512 512;" xml:space="preserve">
<style type="text/css">
	.st0{fill:#931A3D;}
	.st1{fill:#FFC724;}
	.st2{fill:#EE3E30;}
</style>
<title>Artboard 1</title>
<g>
	<path class="st0" d="M39.9,362.2c-6.9,7.2-13.2,14.4-18.9,21.6c0.3-0.3,0.5-0.6,0.8-0.8c41.5-43.4,85.7-68.5,98.8-56
		c13.1,12.5-10,57.8-51.5,101.2c-13,13.6-26.2,25.3-38.7,34.7c19-9.3,41.7-26.6,63.4-49.2c41.5-43.4,63-90.2,48.1-104.4
		C127.1,295.2,81.3,318.8,39.9,362.2z"/>
	<path class="st1" d="M398.8,208.2c33-4.8,64.4-6.8,92.2-6.4c-36.8-7.7-87.5-8.4-142.6-0.4c-105.6,15.4-186.9,57.4-181.6,93.6
		c5.3,36.3,95.2,53.1,200.8,37.7c17.4-2.6,34.2-5.8,50.1-9.7c-0.7,0.1-1.3,0.2-2,0.3c-105.6,15.4-195,2.2-199.7-29.6
		C211.4,261.9,293.2,223.6,398.8,208.2z"/>
	<path class="st2" d="M217.9,140.1c-0.2,0.5-0.4,0.9-0.6,1.4c-30.1,71.4-72,121.9-93.5,112.8c-21.5-9.1-14.5-74.3,15.7-145.7
		c9.4-22.3,20-42.6,30.7-59.6c-18.6,19.9-38.2,51.2-53.9,88.4c-30.2,71.4-34.7,137.6-10.2,148c24.5,10.3,68.8-39.1,99-110.5
		C210,163.1,214.3,151.4,217.9,140.1z"/>
</g>
</svg>
