<?xml version="1.0" encoding="utf-8"?>
<!-- Generator: Adobe Illustrator 21.0.0, SVG Export Plug-In . SVG Version: 6.00 Build 0)  -->
<svg version="1.1" id="Layer_1" xmlns="http://www.w3.org/2000/svg" xmlns:xlink="http://www.w3.org/1999/xlink" x="0px" y="0px"
	 viewBox="0 0 512 512" style="enable-background:new 0 0 512 512;" xml:space="preserve">
<style type="text/css">
	.st0{fill:#FFC724;}
	.st1{fill:#EE3E30;}
	.st2{fill:#931A3D;}
</style>
<title>Artboard 1</title>
<g>
	<path class="st0" d="M450.5,158.7c-0.1,53.7-43.6,97.1-97.3,97.3v0c-53.7-0.1-97.1-43.5-97.2-97.2c0.1-53.7,43.6-97.1,97.2-97.2
		h97.3V158.7z"/>
	<path class="st1" d="M158.7,256c-53.7-0.1-97.1-43.6-97.3-97.3V61.5l97.3,0c53.7,0.1,97.2,43.5,97.3,97.2
		C255.9,212.4,212.5,255.9,158.7,256L158.7,256z"/>
	<path class="st1" d="M450.5,353.2c-0.1-53.7-43.6-97.1-97.3-97.2v0c-53.7,0.1-97.1,43.5-97.2,97.2c0.1,53.7,43.6,97.2,97.2,97.2
		h97.3V353.2z"/>
	<path class="st2" d="M158.7,256c-53.7,0.1-97.1,43.6-97.3,97.2v97.3l97.3,0c53.7-0.1,97.2-43.6,97.3-97.2
		C255.9,299.6,212.5,256.1,158.7,256L158.7,256z"/>
</g>
</svg>
