<svg id="Layer_1" data-name="Layer 1" xmlns="http://www.w3.org/2000/svg" viewBox="0 0 512 512">
  <defs>
    <style>
      .cls-1 {
        fill: #ffc724;
      }

      .cls-2 {
        fill: #f58b1f;
      }

      .cls-3 {
        fill: #ee3e30;
      }

      .cls-4 {
        fill: #931a3d;
      }

      .cls-5 {
        fill: #c41e51;
      }
    </style>
  </defs>
  <title>Artboard 4</title>
  <g id="_Group_" data-name="&lt;Group&gt;">
    <g id="_Group_2" data-name="&lt;Group&gt;">
      <g id="_Group_3" data-name="&lt;Group&gt;">
        <polygon id="_Path_" data-name="&lt;Path&gt;" class="cls-1" points="108.2 85.33 256 0 256 170.67 108.2 85.33"/>
        <polyline id="_Path_2" data-name="&lt;Path&gt;" class="cls-2" points="403.8 85.33 256 0 256 170.67 403.8 85.33"/>
        <polyline id="_Path_3" data-name="&lt;Path&gt;" class="cls-3" points="403.8 256 403.8 85.33 256 170.67"/>
        <polygon id="_Path_4" data-name="&lt;Path&gt;" class="cls-4" points="108.2 256 256 341.33 256 170.67 108.2 256"/>
        <polygon id="_Path_5" data-name="&lt;Path&gt;" class="cls-5" points="256 170.67 256 341.33 403.8 256 256 170.67"/>
      </g>
      <g id="_Group_4" data-name="&lt;Group&gt;">
        <polygon id="_Path_6" data-name="&lt;Path&gt;" class="cls-3" points="108.2 256 108.2 426.67 256 341.33 108.2 256"/>
        <polygon id="_Path_7" data-name="&lt;Path&gt;" class="cls-2" points="108.2 426.67 256 512 256 341.33 108.2 426.67"/>
        <polygon id="_Path_8" data-name="&lt;Path&gt;" class="cls-1" points="256 341.33 256 512 403.8 426.67 256 341.33"/>
      </g>
    </g>
  </g>
</svg>
