<svg id="Layer_1" data-name="Layer 1" xmlns="http://www.w3.org/2000/svg" xmlns:xlink="http://www.w3.org/1999/xlink" viewBox="0 0 512 512">
  <defs>
    <style>
      .cls-1 {
        fill: url(#linear-gradient);
      }

      .cls-2 {
        fill: url(#linear-gradient-2);
      }
    </style>
    <linearGradient id="linear-gradient" x1="79.54" y1="-16322.12" x2="391.53" y2="-16010.12" gradientTransform="matrix(1, 0, 0, -1, 0, -15870)" gradientUnits="userSpaceOnUse">
      <stop offset="0" stop-color="#f58b1f"/>
      <stop offset="0.49" stop-color="#ed6723"/>
      <stop offset="1" stop-color="#ee3e30"/>
    </linearGradient>
    <linearGradient id="linear-gradient-2" x1="133.27" y1="-16429.45" x2="133.27" y2="-16153.01" gradientTransform="matrix(0.71, 0.71, 0.71, -0.71, 11542.98, -11199.21)" gradientUnits="userSpaceOnUse">
      <stop offset="0" stop-color="#c41e51"/>
      <stop offset="0.21" stop-color="#b71a4b"/>
      <stop offset="0.59" stop-color="#940f3a"/>
      <stop offset="1" stop-color="#680225"/>
    </linearGradient>
  </defs>
  <title>Artboard 1</title>
  <g id="_Group_" data-name="&lt;Group&gt;">
    <g id="_Group_2" data-name="&lt;Group&gt;">
      <path id="_Path_" data-name="&lt;Path&gt;" class="cls-1" d="M365.18,274.21a47.8,47.8,0,0,1-38-55.94L332,193.49c12.72-66.45-29-132.77-95.31-146.29A122.63,122.63,0,0,0,91.38,145.8C79.47,212.4,125.7,275.67,192.15,288.38l24.78,4.74a47.8,47.8,0,0,1,38,55.93c-10.14,53,23.22,106,76.17,116.41A97.14,97.14,0,0,0,445.25,388C455.15,334.93,418.17,284.35,365.18,274.21Z"/>
      <circle id="_Path_2" data-name="&lt;Path&gt;" class="cls-2" cx="133.28" cy="399.17" r="68.13" transform="translate(-243.22 211.15) rotate(-45)"/>
    </g>
  </g>
</svg>
